<?xml version="1.0" encoding="UTF-8"?>
<svg xmlns="http://www.w3.org/2000/svg" xmlns:xlink="http://www.w3.org/1999/xlink" zoomAndPan="magnify" preserveAspectRatio="xMidYMid meet" version="1.0" viewBox="1.69 3 361.41 229.74">
  <defs>
    <g></g>
  </defs>
  <g fill="#200f05" fill-opacity="1">
    <g transform="translate(0.0000045, 94.00453)">
      <g>
        <path d="M 3.253906 0 L 52.726562 0 C 77.855469 0 88.140625 -8.070312 88.140625 -26.429688 C 88.140625 -39.058594 80.328125 -45.957031 70.957031 -48.5625 C 80.71875 -52.46875 83.714844 -57.804688 83.714844 -68.742188 C 83.714844 -82.933594 73.429688 -91.003906 51.816406 -91.003906 L 3.253906 -91.003906 L 3.253906 -74.210938 L 10.804688 -74.210938 L 10.804688 -16.925781 L 3.253906 -16.925781 Z M 37.757812 -73.820312 L 45.957031 -73.820312 C 50.90625 -73.820312 54.550781 -70.304688 54.550781 -64.316406 C 54.550781 -58.066406 52.597656 -54.289062 45.699219 -54.289062 L 37.757812 -54.289062 Z M 37.757812 -16.925781 L 37.757812 -39.578125 L 47.78125 -39.578125 C 54.941406 -39.578125 58.71875 -34.761719 58.71875 -28.121094 C 58.71875 -21.089844 53.640625 -16.925781 48.171875 -16.925781 Z M 37.757812 -16.925781 "></path>
      </g>
    </g>
  </g>
  <g fill="#200f05" fill-opacity="1">
    <g transform="translate(89.438224, 94.00453)">
      <g>
        <path d="M 57.675781 -21.613281 C 50.644531 -15.753906 43.875 -15.363281 39.449219 -15.363281 C 28.511719 -15.363281 26.820312 -22.523438 26.039062 -26.039062 L 67.050781 -26.039062 C 69.785156 -33.460938 68.351562 -43.484375 66.789062 -48.042969 C 63.011719 -58.976562 51.167969 -66.917969 35.671875 -66.917969 C 16.015625 -66.917969 0.652344 -54.289062 0.652344 -32.9375 C 0.652344 -7.941406 18.878906 2.34375 35.023438 2.34375 C 48.5625 2.34375 58.976562 -0.652344 68.613281 -8.984375 Z M 26.429688 -38.929688 C 26.691406 -42.183594 28.511719 -49.34375 36.453125 -49.34375 C 44.785156 -49.34375 45.957031 -43.875 46.089844 -38.929688 Z M 26.429688 -38.929688 "></path>
      </g>
    </g>
  </g>
  <g fill="#200f05" fill-opacity="1">
    <g transform="translate(159.999384, 94.00453)">
      <g>
        <path d="M 43.355469 0 L 43.355469 -17.054688 L 33.980469 -17.054688 L 33.980469 -35.542969 C 33.980469 -41.140625 35.542969 -47.652344 42.183594 -47.652344 C 49.863281 -47.652344 49.472656 -39.96875 49.472656 -35.542969 L 49.472656 0 L 82.28125 0 L 82.28125 -17.054688 L 76.164062 -17.054688 L 76.164062 -38.796875 C 76.164062 -52.46875 72.777344 -67.441406 52.597656 -67.441406 C 44.394531 -67.441406 38.40625 -63.144531 33.980469 -57.023438 L 30.984375 -65.097656 L 3.253906 -65.097656 L 3.253906 -48.171875 L 8.722656 -48.171875 L 8.722656 -17.054688 L 3.253906 -17.054688 L 3.253906 0 Z M 43.355469 0 "></path>
      </g>
    </g>
  </g>
  <g fill="#200f05" fill-opacity="1">
    <g transform="translate(244.219957, 94.00453)">
      <g></g>
    </g>
  </g>
  <g fill="#200f05" fill-opacity="1">
    <g transform="translate(0.0000045, 193.237386)">
      <g>
        <path d="M 4.035156 0 L 33.328125 0 L 35.28125 -4.425781 C 38.929688 -1.300781 42.574219 1.433594 52.46875 1.433594 C 70.824219 1.433594 82.152344 -11.976562 82.542969 -32.027344 C 82.933594 -49.472656 72.386719 -66.136719 52.597656 -66.136719 C 46.21875 -66.136719 38.40625 -63.402344 35.542969 -60.019531 L 35.542969 -97.644531 L 4.035156 -97.644531 L 4.035156 -80.589844 L 9.503906 -80.589844 L 9.503906 -16.925781 L 4.035156 -16.925781 Z M 53.898438 -31.765625 C 53.898438 -21.871094 50.125 -15.492188 44.65625 -15.492188 C 39.710938 -15.492188 35.28125 -22.261719 35.28125 -31.117188 C 34.761719 -41.402344 39.449219 -47.78125 44.527344 -47.78125 C 50.253906 -47.78125 53.898438 -39.578125 53.898438 -31.765625 Z M 53.898438 -31.765625 "></path>
      </g>
    </g>
  </g>
  <g fill="#200f05" fill-opacity="1">
    <g transform="translate(85.402429, 193.237386)">
      <g>
        <path d="M 16.535156 -87.097656 L 16.535156 -76.164062 L 28.773438 -76.164062 L 28.773438 -87.097656 Z M 37.367188 -87.097656 L 37.367188 -76.164062 L 49.605469 -76.164062 L 49.605469 -87.097656 Z M 10.15625 -44.527344 C 15.101562 -47.261719 21.871094 -50.515625 29.554688 -50.515625 C 36.585938 -50.515625 41.921875 -49.082031 41.921875 -43.222656 L 41.921875 -38.667969 C 41.269531 -39.449219 36.714844 -43.222656 29.03125 -43.222656 C 14.320312 -43.222656 1.953125 -33.980469 1.953125 -19.269531 C 1.953125 -4.167969 15.234375 2.472656 27.601562 2.472656 C 32.289062 2.472656 40.359375 0.78125 45.175781 -5.859375 L 48.300781 0 L 76.164062 0 L 76.164062 -16.664062 L 68.351562 -16.664062 L 68.351562 -42.050781 C 68.351562 -63.011719 48.691406 -68.871094 33.070312 -68.871094 C 21.089844 -68.871094 9.894531 -62.753906 4.6875 -59.628906 Z M 41.921875 -18.746094 C 40.75 -16.796875 37.496094 -14.453125 33.589844 -14.453125 C 29.683594 -14.453125 26.691406 -16.925781 26.691406 -20.570312 C 26.691406 -24.605469 29.03125 -27.472656 34.242188 -27.472656 C 39.710938 -27.472656 41.53125 -24.347656 41.921875 -23.695312 Z M 41.921875 -18.746094 "></path>
      </g>
    </g>
  </g>
  <g fill="#200f05" fill-opacity="1">
    <g transform="translate(163.514413, 193.237386)">
      <g>
        <path d="M 66.007812 -35.671875 L 66.007812 -65.097656 L 50.644531 -65.097656 L 48.433594 -58.847656 C 46.21875 -61.453125 41.011719 -66.269531 32.15625 -66.269531 C 15.492188 -66.269531 0.128906 -55.984375 0.128906 -32.9375 C 0.128906 -9.765625 16.796875 1.824219 35.933594 1.824219 C 49.996094 1.824219 61.710938 -4.816406 67.832031 -11.457031 L 56.375 -24.738281 C 52.078125 -20.050781 47.519531 -17.183594 40.621094 -17.316406 C 32.289062 -17.445312 27.210938 -24.214844 27.210938 -32.679688 C 27.210938 -41.140625 30.984375 -49.34375 38.667969 -49.34375 C 44.65625 -49.34375 46.609375 -41.921875 46.871094 -35.671875 Z M 66.007812 -35.671875 "></path>
      </g>
    </g>
  </g>
  <g fill="#200f05" fill-opacity="1">
    <g transform="translate(232.643522, 193.237386)">
      <g>
        <path d="M 4.949219 0 L 39.710938 0 L 39.710938 -17.054688 L 34.890625 -17.054688 L 34.890625 -27.992188 L 39.449219 -31.117188 L 49.34375 -17.054688 L 43.875 -17.054688 L 43.875 0 L 82.414062 0 L 82.414062 -17.054688 L 75.902344 -17.054688 L 58.328125 -42.183594 L 67.179688 -47.78125 L 77.203125 -47.78125 L 77.203125 -64.964844 L 40.75 -64.964844 L 40.75 -47.78125 L 50.125 -47.78125 L 35.023438 -38.796875 L 35.023438 -97.644531 L 4.949219 -97.644531 L 4.949219 -80.589844 L 10.285156 -80.589844 L 10.285156 -16.925781 L 4.949219 -16.925781 Z M 4.949219 0 "></path>
      </g>
    </g>
  </g>
  <g fill="#200f05" fill-opacity="1">
    <g transform="translate(317.785592, 193.237386)">
      <g>
        <path d="M 1.953125 -65.097656 L 1.953125 -48.171875 L 8.984375 -48.171875 L 8.984375 -24.996094 C 9.375 -8.332031 10.023438 2.34375 29.554688 2.34375 C 32.546875 2.34375 41.402344 1.433594 45.308594 -0.128906 L 45.308594 -16.796875 C 42.832031 -15.753906 38.796875 -14.582031 37.105469 -14.582031 C 32.027344 -14.582031 32.9375 -20.570312 32.9375 -24.996094 L 32.9375 -48.171875 L 45.308594 -48.171875 L 45.308594 -65.097656 L 32.9375 -65.097656 L 32.9375 -84.757812 L 8.984375 -77.074219 L 8.984375 -65.097656 Z M 1.953125 -65.097656 "></path>
      </g>
    </g>
  </g>
  <g fill="#59321c" fill-opacity="1">
    <g transform="translate(0.0000045, 232.455316)">
      <g>
        <path d="M 12.515625 0.28125 C 10.328125 0.28125 8.410156 -0.1875 6.765625 -1.125 C 5.128906 -2.0625 3.875 -3.390625 3 -5.109375 C 2.125 -6.835938 1.6875 -8.859375 1.6875 -11.171875 C 1.6875 -13.460938 2.125 -15.46875 3 -17.1875 C 3.875 -18.914062 5.128906 -20.242188 6.765625 -21.171875 C 8.410156 -22.097656 10.328125 -22.5625 12.515625 -22.5625 C 14.015625 -22.5625 15.425781 -22.328125 16.75 -21.859375 C 18.082031 -21.390625 19.1875 -20.738281 20.0625 -19.90625 L 18.75 -16.96875 C 17.75 -17.78125 16.75 -18.367188 15.75 -18.734375 C 14.757812 -19.097656 13.703125 -19.28125 12.578125 -19.28125 C 10.429688 -19.28125 8.769531 -18.578125 7.59375 -17.171875 C 6.414062 -15.773438 5.828125 -13.773438 5.828125 -11.171875 C 5.828125 -8.546875 6.410156 -6.523438 7.578125 -5.109375 C 8.742188 -3.703125 10.410156 -3 12.578125 -3 C 13.703125 -3 14.757812 -3.179688 15.75 -3.546875 C 16.75 -3.910156 17.75 -4.503906 18.75 -5.328125 L 20.0625 -2.375 C 19.1875 -1.539062 18.082031 -0.890625 16.75 -0.421875 C 15.425781 0.046875 14.015625 0.28125 12.515625 0.28125 Z M 12.515625 0.28125 "></path>
      </g>
    </g>
  </g>
  <g fill="#59321c" fill-opacity="1">
    <g transform="translate(21.435164, 232.455316)">
      <g>
        <path d="M 19.4375 0 L 17.21875 -5.234375 L 6.328125 -5.234375 L 4.0625 0 L 0 0 L 10.078125 -22.28125 L 13.359375 -22.28125 L 23.46875 0 Z M 7.671875 -8.359375 L 15.875 -8.359375 L 11.765625 -17.90625 Z M 7.671875 -8.359375 "></path>
      </g>
    </g>
  </g>
  <g fill="#59321c" fill-opacity="1">
    <g transform="translate(44.904298, 232.455316)">
      <g>
        <path d="M 2.40625 0 L 2.40625 -22.28125 L 16.96875 -22.28125 L 16.96875 -19.0625 L 6.421875 -19.0625 L 6.421875 -12.953125 L 16.34375 -12.953125 L 16.34375 -9.703125 L 6.421875 -9.703125 L 6.421875 0 Z M 2.40625 0 "></path>
      </g>
    </g>
  </g>
  <g fill="#59321c" fill-opacity="1">
    <g transform="translate(62.803422, 232.455316)">
      <g>
        <path d="M 2.40625 0 L 2.40625 -22.28125 L 17.3125 -22.28125 L 17.3125 -19.09375 L 6.359375 -19.09375 L 6.359375 -12.921875 L 16.65625 -12.921875 L 16.65625 -9.734375 L 6.359375 -9.734375 L 6.359375 -3.1875 L 17.3125 -3.1875 L 17.3125 0 Z M 2.40625 0 "></path>
      </g>
    </g>
  </g>
  <g fill="#59321c" fill-opacity="1">
    <g transform="translate(81.422274, 232.455316)">
      <g></g>
    </g>
  </g>
  <g fill="#59321c" fill-opacity="1">
    <g transform="translate(89.996349, 232.455316)">
      <g>
        <path d="M 20.21875 0.28125 C 18.425781 -0.34375 16.878906 -1.238281 15.578125 -2.40625 C 13.640625 -0.632812 11.410156 0.25 8.890625 0.25 C 7.390625 0.25 6.054688 -0.00390625 4.890625 -0.515625 C 3.734375 -1.023438 2.835938 -1.738281 2.203125 -2.65625 C 1.566406 -3.570312 1.25 -4.628906 1.25 -5.828125 C 1.25 -7.179688 1.625 -8.378906 2.375 -9.421875 C 3.125 -10.460938 4.328125 -11.441406 5.984375 -12.359375 C 5.140625 -13.273438 4.53125 -14.117188 4.15625 -14.890625 C 3.78125 -15.671875 3.59375 -16.46875 3.59375 -17.28125 C 3.59375 -18.84375 4.15625 -20.101562 5.28125 -21.0625 C 6.414062 -22.019531 7.890625 -22.5 9.703125 -22.5 C 11.367188 -22.5 12.703125 -22.0625 13.703125 -21.1875 C 14.703125 -20.3125 15.203125 -19.144531 15.203125 -17.6875 C 15.203125 -16.5625 14.875 -15.535156 14.21875 -14.609375 C 13.5625 -13.691406 12.484375 -12.796875 10.984375 -11.921875 L 15.390625 -7.359375 C 16.273438 -9.128906 16.757812 -11.140625 16.84375 -13.390625 L 20.15625 -13.390625 C 20.007812 -10.140625 19.195312 -7.332031 17.71875 -4.96875 C 18.945312 -3.820312 20.425781 -2.96875 22.15625 -2.40625 Z M 9.734375 -19.8125 C 8.960938 -19.8125 8.34375 -19.582031 7.875 -19.125 C 7.40625 -18.664062 7.171875 -18.050781 7.171875 -17.28125 C 7.171875 -16.800781 7.300781 -16.328125 7.5625 -15.859375 C 7.820312 -15.398438 8.304688 -14.773438 9.015625 -13.984375 C 10.117188 -14.628906 10.894531 -15.21875 11.34375 -15.75 C 11.789062 -16.289062 12.015625 -16.882812 12.015625 -17.53125 C 12.015625 -18.21875 11.804688 -18.769531 11.390625 -19.1875 C 10.972656 -19.601562 10.421875 -19.8125 9.734375 -19.8125 Z M 5.0625 -6.046875 C 5.0625 -5.035156 5.414062 -4.238281 6.125 -3.65625 C 6.84375 -3.070312 7.804688 -2.78125 9.015625 -2.78125 C 10.640625 -2.78125 12.109375 -3.382812 13.421875 -4.59375 L 7.953125 -10.265625 C 6.953125 -9.640625 6.21875 -8.992188 5.75 -8.328125 C 5.289062 -7.660156 5.0625 -6.898438 5.0625 -6.046875 Z M 5.0625 -6.046875 "></path>
      </g>
    </g>
  </g>
  <g fill="#59321c" fill-opacity="1">
    <g transform="translate(111.525387, 232.455316)">
      <g></g>
    </g>
  </g>
  <g fill="#59321c" fill-opacity="1">
    <g transform="translate(120.099462, 232.455316)">
      <g>
        <path d="M 16.125 -11.515625 C 17.414062 -11.140625 18.410156 -10.484375 19.109375 -9.546875 C 19.804688 -8.609375 20.15625 -7.453125 20.15625 -6.078125 C 20.15625 -4.171875 19.484375 -2.679688 18.140625 -1.609375 C 16.796875 -0.535156 14.921875 0 12.515625 0 L 2.40625 0 L 2.40625 -22.28125 L 12.203125 -22.28125 C 14.503906 -22.28125 16.3125 -21.765625 17.625 -20.734375 C 18.9375 -19.703125 19.59375 -18.28125 19.59375 -16.46875 C 19.59375 -15.289062 19.285156 -14.269531 18.671875 -13.40625 C 18.054688 -12.539062 17.207031 -11.910156 16.125 -11.515625 Z M 6.359375 -12.890625 L 11.546875 -12.890625 C 14.347656 -12.890625 15.75 -13.9375 15.75 -16.03125 C 15.75 -17.070312 15.398438 -17.851562 14.703125 -18.375 C 14.015625 -18.894531 12.960938 -19.15625 11.546875 -19.15625 L 6.359375 -19.15625 Z M 12.078125 -3.125 C 13.535156 -3.125 14.601562 -3.382812 15.28125 -3.90625 C 15.96875 -4.425781 16.3125 -5.253906 16.3125 -6.390625 C 16.3125 -7.535156 15.96875 -8.378906 15.28125 -8.921875 C 14.601562 -9.460938 13.535156 -9.734375 12.078125 -9.734375 L 6.359375 -9.734375 L 6.359375 -3.125 Z M 12.078125 -3.125 "></path>
      </g>
    </g>
  </g>
  <g fill="#59321c" fill-opacity="1">
    <g transform="translate(141.691076, 232.455316)">
      <g>
        <path d="M 19.4375 0 L 17.21875 -5.234375 L 6.328125 -5.234375 L 4.0625 0 L 0 0 L 10.078125 -22.28125 L 13.359375 -22.28125 L 23.46875 0 Z M 7.671875 -8.359375 L 15.875 -8.359375 L 11.765625 -17.90625 Z M 7.671875 -8.359375 "></path>
      </g>
    </g>
  </g>
  <g fill="#59321c" fill-opacity="1">
    <g transform="translate(165.16021, 232.455316)">
      <g>
        <path d="M 21.75 0 L 16.8125 0 L 6.453125 -10.421875 L 6.453125 0 L 2.40625 0 L 2.40625 -22.28125 L 6.453125 -22.28125 L 6.453125 -12.296875 L 16.40625 -22.28125 L 21.25 -22.28125 L 10.421875 -11.578125 Z M 21.75 0 "></path>
      </g>
    </g>
  </g>
  <g fill="#59321c" fill-opacity="1">
    <g transform="translate(186.000823, 232.455316)">
      <g>
        <path d="M 2.40625 0 L 2.40625 -22.28125 L 17.3125 -22.28125 L 17.3125 -19.09375 L 6.359375 -19.09375 L 6.359375 -12.921875 L 16.65625 -12.921875 L 16.65625 -9.734375 L 6.359375 -9.734375 L 6.359375 -3.1875 L 17.3125 -3.1875 L 17.3125 0 Z M 2.40625 0 "></path>
      </g>
    </g>
  </g>
  <g fill="#59321c" fill-opacity="1">
    <g transform="translate(204.619675, 232.455316)">
      <g>
        <path d="M 20.75 0 L 16.5 0 L 13.640625 -7.421875 C 13.390625 -8.109375 13.003906 -8.585938 12.484375 -8.859375 C 11.960938 -9.128906 11.285156 -9.265625 10.453125 -9.265625 L 6.421875 -9.265625 L 6.421875 0 L 2.40625 0 L 2.40625 -22.28125 L 11.953125 -22.28125 C 14.484375 -22.28125 16.40625 -21.726562 17.71875 -20.625 C 19.03125 -19.519531 19.6875 -17.9375 19.6875 -15.875 C 19.6875 -14.382812 19.296875 -13.125 18.515625 -12.09375 C 17.734375 -11.0625 16.617188 -10.328125 15.171875 -9.890625 C 16.492188 -9.617188 17.445312 -8.703125 18.03125 -7.140625 Z M 11.390625 -12.390625 C 12.910156 -12.390625 14.035156 -12.671875 14.765625 -13.234375 C 15.503906 -13.796875 15.875 -14.65625 15.875 -15.8125 C 15.875 -16.9375 15.507812 -17.773438 14.78125 -18.328125 C 14.0625 -18.878906 12.929688 -19.15625 11.390625 -19.15625 L 6.359375 -19.15625 L 6.359375 -12.390625 Z M 11.390625 -12.390625 "></path>
      </g>
    </g>
  </g>
  <g fill="#59321c" fill-opacity="1">
    <g transform="translate(226.586804, 232.455316)">
      <g>
        <path d="M 20.90625 -22.28125 L 11.859375 -8.828125 L 11.859375 0 L 7.828125 0 L 7.828125 -8.828125 L -1.21875 -22.28125 L 3.375 -22.28125 L 9.828125 -12.203125 L 16.3125 -22.28125 Z M 20.90625 -22.28125 "></path>
      </g>
    </g>
  </g>
  <g fill="#59321c" fill-opacity="1">
    <g transform="translate(246.24972, 232.455316)">
      <g></g>
    </g>
  </g>
</svg>
