<?xml version="1.0" encoding="UTF-8"?>
<svg xmlns="http://www.w3.org/2000/svg" width="318" height="376" viewBox="0 0 318 376" fill="none">
  <path d="M31.72 46.304C31.336 43.424 29.704 32 28.648 27.392L26.152 13.376H31.72V0.895994H0.0399999V13.376H5.416L18.088 68H40.36L46.216 44.96C46.888 42.176 48.136 36.128 48.52 33.248H48.904C49.384 36.224 50.44 41.888 51.304 45.152L57.064 68H79.816L94.12 13.376H99.4V0.895994H71.944V13.376H77.224L73.96 27.968C73.096 32 71.464 41.984 71.08 46.304H70.6C70.12 41.504 69.064 33.632 67.72 27.392L61.672 0.895994H41.704L36.904 22.496C34.984 31.616 32.392 43.616 32.2 46.304H31.72ZM135.216 52.064C130.032 56.384 125.04 56.672 121.776 56.672C113.712 56.672 112.464 51.392 111.888 48.8H142.128C144.144 43.328 143.088 35.936 141.936 32.576C139.152 24.512 130.416 18.656 118.992 18.656C104.496 18.656 93.1675 27.968 93.1675 43.712C93.1675 62.144 106.608 69.728 118.512 69.728C128.496 69.728 136.176 67.52 143.28 61.376L135.216 52.064ZM119.568 31.616C125.712 31.616 126.576 35.648 126.672 39.296H112.176C112.368 36.896 113.712 31.616 119.568 31.616ZM8.488 179.168C12.136 177.152 17.128 174.752 22.792 174.752C27.976 174.752 31.912 175.808 31.912 180.128V183.488C31.432 182.912 28.072 180.128 22.408 180.128C11.56 180.128 2.44 186.944 2.44 197.792C2.44 208.928 12.232 213.824 21.352 213.824C24.808 213.824 30.76 212.576 34.312 207.68L36.616 212H57.16V199.712H51.4V180.992C51.4 165.536 36.904 161.216 25.384 161.216C16.552 161.216 8.296 165.728 4.456 168.032L8.488 179.168ZM25.768 201.344C22.888 201.344 20.68 199.52 20.68 196.832C20.68 193.856 22.408 191.744 26.248 191.744C30.28 191.744 31.624 194.048 31.912 194.528V198.176C31.048 199.616 28.648 201.344 25.768 201.344ZM88.1305 199.424H83.3305V189.536C83.3305 181.088 88.2265 178.88 96.8665 178.88V162.272C86.9785 162.272 84.4825 165.536 81.9865 170.144L79.1065 164H61.0585V176.48H65.1865V199.424H60.9625V212H88.1305V199.424ZM140.841 196.064C135.657 200.384 130.665 200.672 127.401 200.672C119.337 200.672 118.089 195.392 117.513 192.8H147.753C149.769 187.328 148.713 179.936 147.561 176.576C144.777 168.512 136.041 162.656 124.617 162.656C110.121 162.656 98.7925 171.968 98.7925 187.712C98.7925 206.144 112.233 213.728 124.137 213.728C134.121 213.728 141.801 211.52 148.905 205.376L140.841 196.064ZM125.193 175.616C131.337 175.616 132.201 179.648 132.297 183.296H117.801C117.993 180.896 119.337 175.616 125.193 175.616ZM33.544 343.424H26.632V329.888C26.632 325.76 27.784 320.96 32.68 320.96C38.344 320.96 38.344 326.624 38.344 329.888V356H63.016V343.424H58.504V327.392C58.504 317.312 56.584 306.272 41.704 306.272C34.696 306.272 27.688 312.224 26.632 313.952V284H3.4V296.48H7.432V343.424H3.4V356H33.544V343.424ZM69.5568 293.984C69.5568 298.592 73.8768 303.68 79.9248 303.68C86.7408 303.68 90.4848 299.264 90.4848 293.984C90.4848 289.568 86.5488 284.192 79.9248 284.192C73.2048 284.192 69.5568 289.568 69.5568 293.984ZM93.7488 343.424H89.1407V308H66.8688V320.48H70.9008V343.424H66.8688V356H93.7488V343.424ZM125.724 343.424H120.924V333.536C120.924 325.088 125.82 322.88 134.46 322.88V306.272C124.572 306.272 122.076 309.536 119.58 314.144L116.7 308H98.6523V320.48H102.78V343.424H98.5563V356H125.724V343.424ZM140.994 293.984C140.994 298.592 145.314 303.68 151.362 303.68C158.178 303.68 161.922 299.264 161.922 293.984C161.922 289.568 157.986 284.192 151.362 284.192C144.642 284.192 140.994 289.568 140.994 293.984ZM165.186 343.424H160.578V308H138.306V320.48H142.338V343.424H138.306V356H165.186V343.424ZM199.562 343.424H192.65V329.792C192.65 325.664 193.802 320.864 198.698 320.864C204.362 320.864 204.074 326.528 204.074 329.792V356H228.266V343.424H223.754V327.392C223.754 317.312 221.258 306.272 206.378 306.272C200.33 306.272 195.914 309.44 192.65 313.952L190.442 308H169.994V320.48H174.026V343.424H169.994V356H199.562V343.424ZM232.054 367.232C235.702 370.592 243.478 375.584 254.038 375.68C274.198 375.584 283.99 365.216 283.99 349.28V320.576H289.75V308H266.902L264.982 310.976C263.062 309.056 259.03 307.04 254.806 307.04C238.966 307.04 230.71 316.832 230.71 331.712C230.71 343.808 237.238 355.712 253.75 355.712C259.894 355.712 263.638 352.16 264.982 350.432V353.696C264.982 357.728 262.486 362.72 253.846 362.72C246.55 362.72 239.35 358.496 237.142 356.576L232.054 367.232ZM251.158 331.52C251.158 324.224 253.942 319.52 257.974 319.52C261.622 319.52 264.886 324.512 264.886 331.04C265.27 338.624 261.814 343.328 258.07 343.328C253.846 343.328 251.158 337.28 251.158 331.52ZM299.412 331.328H312.084L317.172 307.136V288.896H294.228V307.136L299.412 331.328ZM293.844 346.208C293.844 351.2 298.548 356.096 304.788 356.096C311.796 356.096 316.212 351.584 316.212 346.208C316.212 340.736 311.604 336.032 304.788 336.032C297.876 336.032 293.844 341.408 293.844 346.208Z" fill="white"></path>
</svg>
