<?xml version="1.0" encoding="UTF-8" standalone="no"?>
<svg xmlns="http://www.w3.org/2000/svg" version="1.0" width="3955.000000pt" height="2540.000000pt" viewBox="0 0 3955.000000 2540.000000" preserveAspectRatio="xMidYMid meet">
  <metadata>
Created by potrace 1.16, written by Peter Selinger 2001-2019
</metadata>
  <g transform="translate(0.000000,2540.000000) scale(0.100000,-0.100000)" fill="#000000" stroke="none">
    <path d="M1 13398 c1 -9900 3 -11986 14 -11908 75 549 415 912 933 996 114 18 355 20 457 4 225 -36 443 -127 574 -239 l45 -38 -73 -164 c-40 -90 -75 -166 -77 -168 -2 -3 -14 5 -27 16 -71 64 -237 156 -347 191 -146 47 -348 59 -487 29 -200 -43 -363 -174 -453 -361 -74 -157 -111 -407 -92 -627 31 -347 162 -582 383 -687 112 -54 204 -73 349 -73 225 0 404 59 594 195 43 31 80 55 82 54 6 -7 144 -320 144 -329 0 -16 -131 -108 -218 -152 -102 -53 -251 -102 -366 -121 -69 -12 592 -14 4499 -14 2607 0 4555 4 4521 9 -209 30 -398 124 -511 251 -54 61 -118 189 -134 266 -18 85 -14 229 9 316 48 187 164 332 384 477 49 32 93 59 98 59 4 0 -27 44 -69 97 -141 180 -196 343 -174 517 13 105 41 180 96 255 78 106 197 183 344 223 104 28 335 30 431 4 201 -55 339 -183 386 -360 18 -69 18 -228 -1 -300 -40 -153 -152 -292 -337 -417 l-97 -66 215 -224 c119 -123 224 -233 234 -243 18 -19 19 -18 45 39 61 139 110 343 122 508 l6 87 188 0 188 0 -5 -58 c-28 -316 -85 -530 -206 -765 -49 -96 -50 -98 -32 -118 59 -65 244 -177 378 -230 45 -18 71 -33 70 -42 -1 -8 -42 -71 -91 -138 -49 -68 -93 -130 -97 -136 -6 -10 2762 -13 13823 -13 l13831 0 0 2290 c0 1260 -3 2290 -7 2290 -5 0 -41 -11 -82 -25 -267 -91 -830 -186 -1335 -225 -165 -13 -536 -13 -691 0 -639 53 -1077 233 -1357 556 -243 281 -382 670 -447 1250 -52 468 -61 790 -61 2352 l0 1352 -385 0 -385 0 0 930 0 930 385 0 385 0 0 658 0 658 1313 421 1312 421 3 -1079 2 -1079 675 0 675 0 0 1890 0 1890 -4505 0 -4505 0 0 4960 0 4960 -12442 -2 c-6844 -1 -12400 -3 -12348 -5 472 -13 930 -70 1305 -164 1152 -287 1793 -938 1910 -1937 30 -257 16 -754 -30 -1029 -120 -719 -485 -1152 -1247 -1479 -38 -15 -68 -31 -68 -34 0 -3 60 -25 133 -49 416 -136 804 -372 1073 -653 480 -500 688 -1154 635 -1995 -32 -504 -122 -871 -298 -1216 -102 -200 -194 -327 -358 -496 -275 -283 -608 -482 -1058 -632 -399 -133 -786 -203 -1462 -261 -91 -8 -1021 -12 -3122 -15 l-2993 -4 0 931 0 930 415 0 415 0 0 3130 0 3130 -415 0 -415 0 0 925 0 925 -85 0 -85 0 1 -12002z m23519 9397 c590 -69 1048 -271 1391 -614 438 -438 676 -1089 739 -2016 6 -89 10 -704 10 -1502 l0 -1353 335 0 335 0 0 -940 0 -940 -1800 0 -1800 0 -3 2213 c-3 2047 -4 2218 -20 2297 -31 149 -57 233 -104 329 -82 172 -234 296 -423 347 -50 14 -104 18 -235 19 -151 0 -178 -3 -245 -23 -295 -93 -486 -318 -580 -688 -66 -257 -64 -205 -67 -1466 l-4 -1148 511 0 510 0 0 -940 0 -940 -2195 0 -2195 0 0 940 0 940 300 0 300 0 0 1695 0 1695 -300 0 -300 0 0 930 0 930 1522 -2 1522 -3 160 -433 161 -433 25 33 c168 221 384 448 550 580 291 231 617 389 950 462 100 21 191 35 345 50 83 8 475 -4 605 -19z m-9675 -45 c428 -32 830 -116 1193 -252 874 -325 1533 -931 1837 -1688 211 -524 295 -1390 199 -2025 -19 -124 -66 -325 -100 -427 l-26 -78 -2243 0 -2243 0 15 -67 c24 -110 89 -302 132 -390 200 -413 566 -643 1101 -692 226 -21 541 -9 800 30 473 72 929 271 1310 571 47 37 90 68 95 68 9 0 1195 -1361 1203 -1381 2 -4 -67 -63 -152 -131 -654 -525 -1328 -836 -2156 -997 -546 -106 -1296 -146 -1800 -95 -1396 141 -2515 931 -3019 2130 -383 912 -425 2145 -105 3066 395 1136 1288 1932 2509 2236 241 61 574 112 815 125 138 8 508 6 635 -3z m-10135 -9536 l0 -2057 74 70 c278 265 852 492 1435 568 368 48 813 19 1206 -80 1221 -306 2102 -1324 2359 -2727 97 -523 97 -1112 1 -1690 -176 -1063 -666 -1882 -1429 -2386 -126 -83 -424 -234 -566 -286 -233 -85 -475 -144 -750 -183 -161 -23 -802 -26 -975 -5 -551 68 -880 203 -1281 528 l-102 83 -105 -237 -104 -237 -1607 -3 -1606 -2 0 930 0 930 295 0 295 0 0 3480 0 3480 -295 0 -295 0 0 940 0 940 1725 0 1725 0 0 -2056z m25400 -1159 c0 -1768 3 -3215 6 -3215 4 0 368 215 810 478 l802 477 -499 3 -499 2 0 945 0 945 2000 0 2000 0 0 -945 0 -945 -550 0 -551 0 -479 -303 c-264 -166 -478 -307 -476 -313 2 -6 433 -623 956 -1372 l953 -1362 358 0 359 0 0 -940 0 -940 -2115 0 -2115 0 0 940 0 940 293 2 293 3 -525 747 c-289 411 -531 752 -536 757 -7 7 -88 -43 -253 -156 l-242 -166 0 -593 0 -594 260 0 260 0 0 -940 0 -940 -1905 0 -1905 0 0 930 0 930 290 0 290 0 0 3480 0 3480 -290 0 -290 0 0 940 0 940 1650 0 1650 0 0 -3215z m-16790 1455 l0 -600 -675 0 -675 0 0 600 0 600 675 0 675 0 0 -600z m2280 0 l0 -600 -675 0 -675 0 0 600 0 600 675 0 675 0 0 -600z m-1505 -1400 c593 -29 1095 -120 1575 -285 1048 -360 1711 -1046 1909 -1977 68 -320 71 -390 71 -2010 l0 -1428 425 0 425 0 0 -920 0 -920 -1527 0 -1528 0 -160 301 c-88 166 -164 307 -170 315 -8 11 -29 -9 -96 -89 -336 -403 -854 -673 -1474 -769 -114 -17 -185 -22 -380 -22 -132 0 -292 6 -355 13 -967 108 -1705 514 -2115 1166 -153 243 -258 543 -301 862 -23 172 -23 511 0 683 51 378 181 736 374 1030 441 673 1198 1109 2132 1227 197 25 643 25 800 0 253 -40 509 -123 710 -229 110 -58 248 -151 304 -205 l38 -36 -5 304 c-6 340 -13 392 -72 515 -115 239 -389 384 -830 440 -173 22 -627 25 -780 6 -538 -69 -1060 -248 -1650 -565 l-140 -76 -12 28 c-6 14 -142 388 -302 831 -222 613 -288 806 -279 812 133 89 677 375 918 483 447 201 958 366 1376 444 382 71 702 91 1119 71z m8544 -310 c505 -89 932 -314 1278 -673 l92 -95 39 112 c22 61 75 211 118 333 l79 223 848 0 847 0 0 -1610 0 -1610 -1053 0 -1054 0 -7 112 c-14 234 -58 474 -126 680 -128 394 -336 624 -621 684 -102 22 -272 14 -400 -19 -386 -100 -687 -426 -853 -927 -151 -456 -174 -997 -59 -1410 172 -620 617 -1029 1206 -1109 99 -14 364 -14 482 -1 490 56 889 265 1304 681 69 69 125 118 130 113 4 -5 250 -290 546 -634 297 -344 577 -669 624 -723 l84 -98 -84 -85 c-188 -191 -406 -367 -664 -539 -697 -463 -1479 -735 -2345 -816 -171 -16 -643 -16 -820 0 -1023 92 -1866 457 -2485 1076 -700 700 -1049 1669 -1022 2835 14 588 110 1083 297 1540 471 1146 1493 1857 2845 1979 55 5 224 8 375 6 230 -2 295 -6 399 -25z m-17460 -10533 c300 -661 548 -1210 553 -1219 8 -17 -6 -18 -219 -18 l-228 0 -120 285 -120 285 -591 0 -591 0 -124 -285 -123 -285 -229 0 c-179 0 -228 3 -224 13 3 6 242 536 532 1177 290 641 536 1184 546 1208 l18 42 188 0 188 0 544 -1203z m2411 1023 l0 -180 -575 0 -575 0 0 -330 0 -330 545 0 545 0 0 -180 0 -180 -545 0 -545 0 0 -530 0 -530 -225 0 -225 0 0 1220 0 1220 800 0 800 0 0 -180z m2000 5 l0 -175 -600 0 -600 0 0 -335 0 -335 565 0 565 0 0 -180 0 -180 -565 0 -565 0 0 -350 0 -350 600 0 600 0 0 -180 0 -180 -820 0 -820 0 0 1220 0 1220 820 0 820 0 0 -175z m6015 147 c251 -69 418 -217 481 -427 25 -83 25 -267 0 -349 -46 -152 -140 -270 -271 -338 -57 -30 -66 -38 -50 -43 11 -4 53 -23 94 -42 206 -99 323 -322 308 -588 -17 -307 -188 -504 -513 -593 l-99 -26 -667 -4 -668 -3 0 1221 0 1221 653 -3 c636 -4 654 -4 732 -26z m2736 -1186 c302 -666 549 -1213 549 -1218 0 -4 -101 -8 -224 -8 l-224 0 -120 282 -120 283 -593 0 -592 0 -121 -280 -122 -280 -228 -3 c-188 -2 -227 0 -224 11 2 8 248 557 548 1220 l545 1207 189 -3 188 -2 549 -1209z m1259 677 l0 -538 538 538 537 537 275 0 275 0 -593 -587 -593 -588 616 -627 c338 -345 615 -629 615 -632 0 -3 -123 -6 -272 -6 l-273 0 -562 562 -563 563 0 -563 0 -562 -225 0 -225 0 0 1220 0 1220 225 0 225 0 0 -537z m3470 362 l0 -175 -600 0 -600 0 0 -335 0 -335 565 0 565 0 0 -180 0 -180 -565 0 -565 0 0 -350 0 -350 600 0 600 0 0 -180 0 -180 -820 0 -820 0 0 1220 0 1220 820 0 820 0 0 -175z m1782 143 c272 -74 441 -239 493 -481 26 -120 17 -336 -18 -437 -33 -92 -102 -195 -176 -261 -54 -48 -215 -138 -250 -140 -9 0 8 -9 37 -20 74 -29 161 -112 205 -196 28 -55 337 -850 337 -868 0 -3 -107 -5 -237 -5 l-238 0 -109 283 c-230 597 -226 588 -268 633 -25 28 -61 52 -96 66 -53 21 -75 22 -339 26 l-283 4 0 -506 0 -506 -225 0 -225 0 0 1220 0 1221 648 -3 647 -4 97 -26z m1483 -513 l349 -545 63 97 c35 54 193 299 351 545 l287 448 258 0 c141 0 257 -2 257 -4 0 -2 -223 -335 -495 -740 l-495 -736 0 -480 0 -480 -225 0 -225 0 0 483 0 482 -495 735 c-272 404 -495 736 -495 738 0 1 116 2 258 2 l259 0 348 -545z"></path>
    <path d="M13435 20819 c-205 -26 -402 -115 -548 -248 -191 -176 -338 -493 -376 -813 l-7 -58 1069 0 1070 0 -6 113 c-22 371 -132 643 -326 804 -194 161 -549 243 -876 202z"></path>
    <path d="M4538 9780 c-484 -123 -820 -718 -854 -1515 -8 -194 10 -556 36 -715 85 -516 312 -942 614 -1149 239 -164 536 -161 785 9 383 259 609 917 588 1710 -3 118 -13 262 -22 320 -59 388 -184 730 -353 970 -91 129 -236 262 -347 318 -135 68 -307 88 -447 52z"></path>
    <path d="M12760 7570 c-118 -16 -204 -41 -300 -87 -173 -83 -297 -240 -347 -438 -12 -49 -17 -111 -17 -205 0 -121 2 -143 27 -213 72 -205 235 -357 458 -425 356 -109 831 36 1090 333 84 96 79 72 79 365 l0 262 -44 62 c-116 163 -307 281 -531 327 -105 22 -321 32 -415 19z"></path>
    <path d="M3442 1950 c-6 -14 -101 -236 -212 -495 -111 -258 -205 -478 -207 -487 -5 -17 20 -18 432 -18 346 0 436 3 432 13 -4 10 -377 878 -422 982 l-13 30 -10 -25z"></path>
    <path d="M13660 1785 l0 -335 333 0 c254 0 348 4 402 15 189 40 279 144 279 320 0 176 -90 280 -279 320 -54 11 -148 15 -402 15 l-333 0 0 -335z"></path>
    <path d="M13660 736 l0 -356 363 0 c281 0 378 4 432 15 199 42 280 143 280 346 -1 88 -3 101 -34 163 -39 79 -92 123 -191 158 -63 22 -80 22 -457 26 l-393 3 0 -355z"></path>
    <path d="M16388 1462 l-217 -507 220 -3 c120 -1 317 -1 438 0 l218 3 -213 495 c-117 272 -216 501 -221 507 -5 8 -87 -173 -225 -495z"></path>
    <path d="M22910 1754 l0 -366 343 5 c272 3 355 8 405 21 128 33 203 90 248 188 25 55 28 75 28 158 0 81 -3 103 -25 150 -36 76 -68 112 -136 147 -102 55 -173 63 -538 63 l-325 0 0 -366z"></path>
    <path d="M3960 22446 l0 -1066 483 0 c509 0 592 5 746 45 209 56 371 182 463 360 85 166 118 320 125 593 6 212 -4 325 -42 457 -51 177 -130 309 -252 426 -89 85 -166 135 -273 178 -156 62 -176 64 -737 68 l-513 5 0 -1066z"></path>
    <path d="M3960 18525 l0 -1236 643 4 c554 3 651 6 711 20 243 58 418 151 574 305 166 163 277 380 329 638 24 124 24 401 -1 539 -93 511 -388 827 -873 937 -94 21 -122 22 -740 25 l-643 4 0 -1236z"></path>
    <path d="M38198 8463 c-4 -1797 -4 -1760 16 -1864 68 -358 250 -472 628 -395 201 41 466 122 691 211 16 7 17 98 17 1716 l0 1709 -675 0 -675 0 -2 -1377z"></path>
    <path d="M10605 2167 c-97 -47 -144 -126 -145 -242 0 -89 30 -156 124 -273 l67 -83 37 22 c69 42 171 120 203 157 118 134 106 326 -25 407 -43 26 -61 30 -130 33 -69 2 -89 -1 -131 -21z"></path>
    <path d="M10468 1100 c-140 -103 -223 -224 -236 -343 -20 -170 46 -301 183 -367 107 -52 287 -62 415 -24 76 22 196 86 249 132 l45 39 -159 164 c-88 90 -221 227 -296 305 l-138 140 -63 -46z"></path>
    <path d="M2 558 l-2 -558 508 1 c471 1 501 2 428 15 -492 89 -825 430 -910 934 -9 52 -17 111 -19 130 -2 19 -5 -216 -5 -522z"></path>
    <path d="M11316 240 c-150 -123 -330 -201 -536 -233 -14 -3 223 -5 525 -5 l550 -1 -82 34 c-114 48 -219 108 -317 182 -47 35 -86 63 -88 63 -1 -1 -25 -19 -52 -40z"></path>
  </g>
</svg>
